<svg width="175" height="174" fill="none" xmlns="http://www.w3.org/2000/svg"><g opacity=".55"><g filter="url(#a)"><path d="M69.778 24.486a43.82 43.82 0 0 1 3.243-2.654 45.337 45.337 0 0 1 17.016-7.793 44.86 44.86 0 0 1 18.646-.23 2.76 2.76 0 0 1 2.21 2.986 44.911 44.911 0 0 1-5.622 17.82 45.261 45.261 0 0 1-12.4 14.042 45.153 45.153 0 0 1-17.012 7.811 44.676 44.676 0 0 1-18.65.214 2.76 2.76 0 0 1-2.21-2.983c1.1-11.208 6.375-21.636 14.78-29.213Z" fill="url(#b)" fill-opacity=".6"/></g><g filter="url(#c)"><path d="M69.169 62.401c9.984 11.084 23.715 18.1 38.611 19.73 14.897 1.63 29.932-2.24 42.278-10.88a2.81 2.81 0 0 0 1.146-1.658 2.76 2.76 0 0 0-.265-1.984 60.383 60.383 0 0 0-17.753-20.26 60.704 60.704 0 0 0-24.836-10.553 61.477 61.477 0 0 0-27.075 1.21 62.126 62.126 0 0 0-24.032 12.74l-1.32 1.128A43.389 43.389 0 0 1 69.169 62.4Z" fill="url(#d)" fill-opacity=".6"/></g><g filter="url(#e)"><path d="M56.142 52.11a2.826 2.826 0 0 1 1.868-.726 69.535 69.535 0 0 1 28.524 5.857 68.886 68.886 0 0 1 23.525 17.006 68.885 68.885 0 0 1 14.424 25.19 69.524 69.524 0 0 1 2.809 28.984 2.83 2.83 0 0 1-2.787 2.507 69.54 69.54 0 0 1-28.524-5.857 68.896 68.896 0 0 1-23.525-17.006 68.887 68.887 0 0 1-14.424-25.19 69.534 69.534 0 0 1-2.809-28.984 2.826 2.826 0 0 1 .92-1.78Z" fill="url(#f)" fill-opacity=".6"/></g><g filter="url(#g)"><path d="M64.992 66.158c9.966 11.099 15.492 25.495 15.538 40.48.046 14.985-5.39 29.527-15.288 40.891a2.812 2.812 0 0 1-1.77.964 2.76 2.76 0 0 1-1.945-.473 60.383 60.383 0 0 1-18.27-19.795 60.697 60.697 0 0 1-7.868-25.813 61.475 61.475 0 0 1 4.066-26.795 62.124 62.124 0 0 1 15.208-22.55l1.26-1.194a43.387 43.387 0 0 0 9.069 14.285Z" fill="url(#h)" fill-opacity=".6"/></g><g filter="url(#i)"><path d="M57.84 51.145a2.76 2.76 0 0 1 2.733 2.513 44.676 44.676 0 0 1-2.186 18.523 45.153 45.153 0 0 1-9.565 16.091 45.26 45.26 0 0 1-15.274 10.846 44.93 44.93 0 0 1-18.315 3.707 2.761 2.761 0 0 1-2.736-2.513 44.858 44.858 0 0 1 2.2-18.518 45.336 45.336 0 0 1 9.548-16.096 44.098 44.098 0 0 1 2.982-2.944c8.423-7.556 19.35-11.7 30.612-11.61Z" fill="url(#j)" fill-opacity=".6"/></g></g><defs><linearGradient id="b" x1="125.817" y1="4.091" x2="46.303" y2="42.553" gradientUnits="userSpaceOnUse"><stop offset=".203" stop-color="#9FE8D6"/><stop offset=".688" stop-color="#96E0F7" stop-opacity=".6"/><stop offset="1" stop-color="#94CBFF" stop-opacity="0"/></linearGradient><linearGradient id="d" x1="148.859" y1="37.362" x2="81.231" y2="85.504" gradientUnits="userSpaceOnUse"><stop offset=".203" stop-color="#9FE8D6"/><stop offset=".688" stop-color="#96E0F7" stop-opacity=".6"/><stop offset="1" stop-color="#94CBFF" stop-opacity="0"/></linearGradient><linearGradient id="f" x1="131.882" y1="77.743" x2="78.171" y2="119.745" gradientUnits="userSpaceOnUse"><stop offset=".203" stop-color="#9FE8D6"/><stop offset=".688" stop-color="#96E0F7" stop-opacity=".6"/><stop offset="1" stop-color="#94CBFF" stop-opacity="0"/></linearGradient><linearGradient id="h" x1="102.89" y1="78.704" x2="35.261" y2="126.846" gradientUnits="userSpaceOnUse"><stop offset=".203" stop-color="#9FE8D6"/><stop offset=".688" stop-color="#96E0F7" stop-opacity=".6"/><stop offset="1" stop-color="#94CBFF" stop-opacity="0"/></linearGradient><linearGradient id="j" x1="79.406" y1="45.83" x2="-.108" y2="84.293" gradientUnits="userSpaceOnUse"><stop offset=".203" stop-color="#9FE8D6"/><stop offset=".688" stop-color="#96E0F7" stop-opacity=".6"/><stop offset="1" stop-color="#94CBFF" stop-opacity="0"/></linearGradient><filter id="a" x="50.317" y="8.272" width="65.258" height="53.959" filterUnits="userSpaceOnUse" color-interpolation-filters="sRGB"><feFlood flood-opacity="0" result="BackgroundImageFix"/><feGaussianBlur in="BackgroundImageFix" stdDeviation="2.334"/><feComposite in2="SourceAlpha" operator="in" result="effect1_backgroundBlur_641_368"/><feBlend in="SourceGraphic" in2="effect1_backgroundBlur_641_368" result="shape"/></filter><filter id="c" x="51.254" y="31.16" width="104.696" height="56.005" filterUnits="userSpaceOnUse" color-interpolation-filters="sRGB"><feFlood flood-opacity="0" result="BackgroundImageFix"/><feGaussianBlur in="BackgroundImageFix" stdDeviation="2.334"/><feComposite in2="SourceAlpha" operator="in" result="effect1_backgroundBlur_641_368"/><feBlend in="SourceGraphic" in2="effect1_backgroundBlur_641_368" result="shape"/></filter><filter id="e" x="50.102" y="46.713" width="82.312" height="88.885" filterUnits="userSpaceOnUse" color-interpolation-filters="sRGB"><feFlood flood-opacity="0" result="BackgroundImageFix"/><feGaussianBlur in="BackgroundImageFix" stdDeviation="2.334"/><feComposite in2="SourceAlpha" operator="in" result="effect1_backgroundBlur_641_368"/><feBlend in="SourceGraphic" in2="effect1_backgroundBlur_641_368" result="shape"/></filter><filter id="g" x="30.561" y="47.205" width="54.638" height="105.981" filterUnits="userSpaceOnUse" color-interpolation-filters="sRGB"><feFlood flood-opacity="0" result="BackgroundImageFix"/><feGaussianBlur in="BackgroundImageFix" stdDeviation="2.334"/><feComposite in2="SourceAlpha" operator="in" result="effect1_backgroundBlur_641_368"/><feBlend in="SourceGraphic" in2="effect1_backgroundBlur_641_368" result="shape"/></filter><filter id="i" x="7.641" y="46.475" width="57.792" height="61.021" filterUnits="userSpaceOnUse" color-interpolation-filters="sRGB"><feFlood flood-opacity="0" result="BackgroundImageFix"/><feGaussianBlur in="BackgroundImageFix" stdDeviation="2.334"/><feComposite in2="SourceAlpha" operator="in" result="effect1_backgroundBlur_641_368"/><feBlend in="SourceGraphic" in2="effect1_backgroundBlur_641_368" result="shape"/></filter></defs></svg>